<?xml version="1.0" standalone="no"?><!DOCTYPE svg PUBLIC "-//W3C//DTD SVG 1.1//EN" "http://www.w3.org/Graphics/SVG/1.1/DTD/svg11.dtd" ><svg xmlns="http://www.w3.org/2000/svg"><metadata></metadata><defs><font id="Google:Roboto Bold Italic:2016" horiz-adv-x="1778"><font-face font-family="Roboto" font-weight="700" font-stretch="normal" units-per-em="2048" panose-1="2 0 0 0 0 0 0 0 0 0" ascent="1900" descent="-500" x-height="0" bbox="-263 -475 1845 1851" underline-thickness="100" underline-position="-150" unicode-range="U+0021-2122" /><missing-glyph horiz-adv-x="918" d="M100 0 l0 1456 l708 0 l0 -1456 l-708 0 ZM194 1402 l258 -606 l257 606 l-515 0 ZM480 728 l274 -644 l0 1288 l-274 -644 ZM154 1360 l0 -1264 l268 632 l-268 632 ZM194 54 l515 0 l-257 606 l-258 -606 Z" /><glyph glyph-name="exclam" unicode="!" d="M576 1456 l-207 -1008 l-236 0 l143 1008 l300 0 ZM40 131 q-2 68 43 113.5 q45 45.5 112 46.5 q66 1 112 -41 q46 -42 48 -108 q2 -68 -43 -113 q-45 -45 -112 -47 q-65 -1 -112 41 q-47 42 -48 108 Z" /><glyph glyph-name="quotedbl" unicode="&quot;" d="M697 1383 l-99 -396 l-160 0 l86 550 l197 0 l-24 -154 ZM381 1383 l-98 -396 l-162 0 l87 550 l198 0 l-25 -154 Z" /><glyph glyph-name="numbersign" unicode="#" d="M469 0 l142 410 l-180 0 l-141 -410 l-186 0 l142 410 l-218 0 l31 173 l246 0 l98 284 l-223 0 l31 173 l251 0 l144 416 l184 0 l-143 -416 l179 0 l144 416 l186 0 l-143 -416 l209 0 l-30 -173 l-239 0 l-98 -284 l215 0 l-31 -173 l-243 0 l-141 -410 l-186 0 ZM490 583 l179 0 l99 284 l-180 0 l-98 -284 Z" /><glyph glyph-name="dollar" unicode="$" d="M1014 393 q-11 -188 -137.5 -289.5 q-126.5 -101.5 -302.5 -119.5 l-39 -199 l-156 0 l39 200 q-188 29 -274.5 160 q-86.5 131 -81.5 313 l282 -1 q-4 -92 31 -168 q35 -76 142 -77 q84 -1 145 47 q61 48 73 132 q13 87 -34 134.5 q-47 47.5 -120 80.5 q-153 69 -265 169 q-112 100 -100 287 q11 186 137.5 289.5 q126.5 103.5 301.5 121.5 l41 215 l156 0 l-41 -220 q171 -36 240.5 -168.5 q69.5 -132.5 65.5 -294.5 l-283 1 q4 77 -19 157 q-23 80 -121 82 q-83 2 -135 -50 q-52 -52 -63 -131 q-12 -86 36.5 -132 q48.5 -46 119.5 -79 q151 -71 262 -172.5 q111 -101.5 100 -287.5 Z" /><glyph glyph-name="percent" unicode="%" d="M181 1099 l6 77 q13 136 106 220.5 q93 84.5 231 81.5 q132 -3 209 -87 q77 -84 70 -215 l-7 -77 q-12 -136 -104 -219 q-92 -83 -229 -80 q-130 2 -209.5 85.5 q-79.5 83.5 -72.5 213.5 ZM1260 1237 l-876 -1126 l-139 85 l878 1124 l137 -83 ZM380 1176 l-11 -79 q-4 -50 16.5 -89.5 q20.5 -39.5 77.5 -41.5 q59 -1 96 39 q37 40 46 94 l11 79 q5 49 -15 90 q-20 41 -77 43 q-60 2 -97.5 -39 q-37.5 -41 -46.5 -96 ZM714 280 l6 76 q12 136 106 220 q94 84 231 81 q131 -3 209 -86 q78 -83 71 -214 l-6 -77 q-13 -136 -104.5 -220 q-91.5 -84 -229.5 -81 q-131 3 -210 86.5 q-79 83.5 -73 214.5 ZM914 357 l-10 -80 q-4 -48 17.5 -88.5 q21.5 -40.5 76.5 -42.5 q62 -2 97.5 37.5 q35.5 39.5 44.5 96.5 l10 79 q5 49 -15.5 90 q-20.5 41 -76.5 42 q-60 2 -97.5 -38.5 q-37.5 -40.5 -46.5 -95.5 Z" /><glyph glyph-name="ampersand" unicode="&amp;" d="M880 0 l-55 85 q-179 -108 -373 -105 q-178 3 -302.5 109.5 q-124.5 106.5 -112.5 295.5 q9 142 106 231.5 q97 89.5 209 157.5 q-35 75 -63.5 151 q-28.5 76 -22.5 161 q11 174 130.5 284.5 q119.5 110.5 294.5 106.5 q140 -3 237.5 -95.5 q97.5 -92.5 90.5 -236.5 q-5 -110 -71.5 -191 q-66.5 -81 -152.5 -139 l-117 -76 l189 -283 q84 121 101 259 l238 0 q-9 -132 -54.5 -250.5 q-45.5 -118.5 -136.5 -216.5 l167 -248 l-302 0 ZM513 1091 q-8 -49 10 -94.5 q18 -45.5 40 -86.5 l83 50 q47 30 85.5 70 q38.5 40 46.5 99 q6 49 -22.5 82 q-28.5 33 -78.5 34 q-66 1 -110.5 -45.5 q-44.5 -46.5 -53.5 -108.5 ZM326 400 q-11 -78 29.5 -131.5 q40.5 -53.5 120.5 -55.5 q56 -1 108.5 17.5 q52.5 18.5 101.5 43.5 l-216 328 l-24 -15 q-46 -34 -79 -82 q-33 -48 -41 -105 Z" /><glyph glyph-name="quotesingle" unicode="&#39;" d="M389 1373 l-88 -387 l-180 0 l87 550 l206 0 l-25 -163 Z" /><glyph glyph-name="parenleft" unicode="(" d="M116 564 l4 24 q26 194 100.5 400.5 q74.5 206.5 204.5 376.5 q130 170 323 255 l48 -161 q-204 -157 -302.5 -388 q-98.5 -231 -134.5 -479 l-4 -26 q-18 -130 -24 -297 q-6 -167 32.5 -322.5 q38.5 -155.5 154.5 -250.5 l-63 -151 q-169 94 -249 270.5 q-80 176.5 -95.5 378 q-15.5 201.5 5.5 370.5 Z" /><glyph glyph-name="parenright" unicode=")" d="M591 597 l-3 -23 q-27 -195 -105 -402.5 q-78 -207.5 -211.5 -377.5 q-133.5 -170 -327.5 -252 l-48 158 q203 157 302 389 q99 232 135 480 l4 26 q17 127 23 295 q6 168 -32 324.5 q-38 156.5 -153 248.5 l62 154 q170 -93 253.5 -269 q83.5 -176 103 -378.5 q19.5 -202.5 -2.5 -372.5 Z" /><glyph glyph-name="asterisk" unicode="*" d="M135 704 l258 263 l-293 92 l86 170 l286 -128 l44 355 l191 0 l-80 -347 l308 118 l26 -193 l-328 -89 l160 -271 l-160 -104 l-126 292 l-223 -278 l-149 120 Z" /><glyph glyph-name="plus" unicode="+" d="M1017 555 l-350 0 l-71 -409 l-268 0 l71 409 l-353 0 l46 261 l352 0 l68 390 l268 0 l-68 -390 l350 0 l-45 -261 Z" /><glyph glyph-name="comma" unicode="," d="M312 246 l-31 -196 q-20 -123 -86.5 -230.5 q-66.5 -107.5 -163.5 -185.5 l-148 80 q47 79 92 153.5 q45 74.5 62 167.5 l37 211 l238 0 Z" /><glyph glyph-name="hyphen" unicode="-" d="M679 741 l-41 -234 l-548 0 l42 234 l547 0 Z" /><glyph glyph-name="period" unicode="." d="M44 138 q-3 69 42.5 114.5 q45.5 45.5 114.5 46.5 q66 1 112.5 -41 q46.5 -42 47.5 -110 q2 -68 -43 -113.5 q-45 -45.5 -113 -46.5 q-67 -2 -113 40.5 q-46 42.5 -48 109.5 Z" /><glyph glyph-name="slash" unicode="/" d="M872 1456 l-795 -1581 l-222 0 l794 1581 l223 0 Z" /><glyph glyph-name="zero" unicode="0" d="M1089 856 l-39 -252 q-24 -159 -86.5 -303.5 q-62.5 -144.5 -178 -235 q-115.5 -90.5 -299.5 -85.5 q-175 4 -265.5 97.5 q-90.5 93.5 -116.5 235 q-26 141.5 -8 290.5 l38 253 q23 159 86.5 302.5 q63.5 143.5 180 233 q116.5 89.5 298.5 84.5 q175 -4 265.5 -97 q90.5 -93 116.5 -234 q26 -141 8 -289 ZM763 563 l50 335 q7 59 10 139 q3 80 -25 141.5 q-28 61.5 -113 66.5 q-95 5 -148.5 -51.5 q-53.5 -56.5 -78.5 -139.5 q-25 -83 -36 -157 l-49 -334 q-8 -59 -11 -140 q-3 -81 25 -144 q28 -63 114 -67 q96 -5 149 52.5 q53 57.5 78 141 q25 83.5 35 157.5 Z" /><glyph glyph-name="one" unicode="1" d="M919 1459 l-245 -1459 l-282 0 l192 1109 l-353 -107 l44 246 l607 210 l37 1 Z" /><glyph glyph-name="two" unicode="2" d="M1008 233 l-37 -233 l-969 0 l33 210 l523 491 q69 67 148 154 q79 87 94 189 q11 78 -21 139.5 q-32 61.5 -120 63.5 q-109 2 -168 -74.5 q-59 -76.5 -72 -174.5 l-280 -1 q12 215 168.5 349 q156.5 134 368.5 132 q186 -3 308.5 -107 q122.5 -104 106.5 -300 q-9 -118 -71.5 -219 q-62.5 -101 -148.5 -187 q-86 -86 -166 -162 l-298 -268 l601 -2 Z" /><glyph glyph-name="three" unicode="3" d="M552 629 l-166 1 l36 227 l135 -1 q98 1 169 54.5 q71 53.5 84 155.5 q9 80 -32 129 q-41 49 -122 51 q-79 2 -139 -43 q-60 -45 -74 -123 l-282 -2 q7 130 80.5 220 q73.5 90 185 135.5 q111.5 45.5 232.5 44.5 q186 -3 317.5 -106 q131.5 -103 118.5 -303 q-7 -120 -85.5 -199.5 q-78.5 -79.5 -179.5 -127.5 q96 -47 142 -133.5 q46 -86.5 40 -191.5 q-8 -145 -88 -243 q-80 -98 -202 -147 q-122 -49 -257 -47 q-189 3 -315 114 q-126 111 -124 306 l281 0 q-1 -83 46 -134 q47 -51 132 -53 q95 -2 166 55 q71 57 83 153 q26 201 -182 208 Z" /><glyph glyph-name="four" unicode="4" d="M38 512 l743 944 l295 0 l-157 -908 l160 0 l-41 -233 l-160 0 l-55 -315 l-282 0 l55 315 l-578 0 l20 197 ZM330 550 l307 -2 l99 521 l-27 -38 l-379 -481 Z" /><glyph glyph-name="five" unicode="5" d="M387 661 l-232 59 l195 736 l796 0 l-38 -240 l-558 0 l-96 -316 q90 56 210 56 q208 0 299 -146 q91 -146 76 -335 q-17 -217 -165.5 -359 q-148.5 -142 -368.5 -137 q-188 3 -311 121.5 q-123 118.5 -126 306.5 l277 0 q4 -79 43.5 -135 q39.5 -56 126.5 -58 q118 -3 175 86.5 q57 89.5 68 191.5 q10 97 -28.5 171.5 q-38.5 74.5 -148.5 76.5 q-107 1 -194 -79 Z" /><glyph glyph-name="six" unicode="6" d="M1054 487 q-18 -213 -167.5 -362.5 q-149.5 -149.5 -368.5 -145.5 q-159 4 -258.5 89 q-99.5 85 -140.5 216.5 q-41 131.5 -26 275.5 l14 111 q30 224 137.5 405 q107.5 181 283.5 287.5 q176 106.5 412 108.5 l47 0 l-22 -239 l-13 0 q-198 3 -331 -100 q-133 -103 -207 -279 q126 123 294 120 q133 -2 212.5 -75 q79.5 -73 111 -184.5 q31.5 -111.5 22.5 -227.5 ZM371 521 q-7 -60 -1 -131 q6 -71 41.5 -122.5 q35.5 -51.5 115.5 -53.5 q110 -3 171.5 85.5 q61.5 88.5 71.5 185.5 q10 85 -22 170.5 q-32 85.5 -135 88.5 q-74 2 -132.5 -37 q-58.5 -39 -96.5 -98 l-13 -88 Z" /><glyph glyph-name="seven" unicode="7" d="M1192 1456 l-27 -176 l-740 -1280 l-311 0 l737 1223 l-696 0 l37 233 l1000 0 Z" /><glyph glyph-name="eight" unicode="8" d="M1011 408 q-13 -213 -169 -322.5 q-156 -109.5 -355 -105.5 q-185 3 -314 108 q-129 105 -116 302 q9 135 89 224 q80 89 197 143 q-148 115 -137 303 q11 202 155.5 311.5 q144.5 109.5 337.5 105.5 q178 -3 295.5 -107.5 q117.5 -104.5 105.5 -292.5 q-8 -120 -78 -200.5 q-70 -80.5 -172 -132.5 q175 -121 161 -336 ZM815 1063 q8 70 -22.5 125.5 q-30.5 55.5 -108.5 56.5 q-86 2 -138.5 -58 q-52.5 -60 -61.5 -140 q-9 -70 21 -127 q30 -57 109 -58 q87 -2 139 59.5 q52 61.5 62 141.5 ZM734 428 q10 82 -29 141.5 q-39 59.5 -126 61.5 q-97 2 -160.5 -62.5 q-63.5 -64.5 -74.5 -157.5 q-10 -82 29.5 -139.5 q39.5 -57.5 126.5 -59.5 q96 -2 159.5 61 q63.5 63 74.5 155 Z" /><glyph glyph-name="nine" unicode="9" d="M1067 782 q-46 -346 -257 -571 q-211 -225 -575 -227 l-29 0 l22 243 l14 0 q385 -6 519 358 q-55 -51 -121.5 -83 q-66.5 -32 -143.5 -31 q-134 2 -216 73 q-82 71 -116 181.5 q-34 110.5 -24 229.5 q12 141 83 261 q71 120 187.5 192 q116.5 72 263.5 69 q162 -3 256 -93 q94 -90 129.5 -226 q35.5 -136 20.5 -276 l-13 -100 ZM422 957 q-9 -84 19.5 -173 q28.5 -89 132.5 -92 q69 -2 122.5 34.5 q53.5 36.5 90.5 90.5 l17 119 q7 55 2 126.5 q-5 71.5 -37.5 125.5 q-32.5 54 -109.5 56 q-110 2 -168 -96 q-58 -98 -69 -191 Z" /><glyph glyph-name="colon" unicode=":" d="M42 138 q-3 69 42.5 114.5 q45.5 45.5 114.5 46.5 q66 1 112.5 -41 q46.5 -42 47.5 -110 q2 -68 -43 -113.5 q-45 -45.5 -113 -46.5 q-67 -2 -113 40.5 q-46 42.5 -48 109.5 ZM184 957 q-3 69 42.5 114.5 q45.5 45.5 114.5 46.5 q66 1 112.5 -41 q46.5 -42 47.5 -110 q2 -68 -43 -113.5 q-45 -45.5 -113 -46.5 q-67 -2 -113 40.5 q-46 42.5 -48 109.5 Z" /><glyph glyph-name="semicolon" unicode=";" d="M167 957 q-3 69 42.5 114.5 q45.5 45.5 114.5 46.5 q66 1 112.5 -41 q46.5 -42 47.5 -110 q2 -68 -43 -113.5 q-45 -45.5 -113 -46.5 q-67 -2 -113 40.5 q-46 42.5 -48 109.5 ZM333 246 l-31 -196 q-20 -123 -86.5 -230.5 q-66.5 -107.5 -163.5 -185.5 l-148 80 q47 79 92 153.5 q45 74.5 62 167.5 l37 211 l238 0 Z" /><glyph glyph-name="less" unicode="&lt;" d="M810 144 l-773 366 l41 235 l900 365 l-51 -292 l-588 -205 l518 -201 l-47 -268 Z" /><glyph glyph-name="equal" unicode="=" d="M1068 982 l-42 -236 l-869 0 l42 236 l869 0 ZM993 549 l-41 -235 l-870 0 l42 235 l869 0 Z" /><glyph glyph-name="greater" unicode="&gt;" d="M202 1096 l785 -365 l-42 -236 l-911 -365 l51 291 l600 208 l-530 202 l47 265 Z" /><glyph glyph-name="question" unicode="?" d="M568 448 l-247 -1 q8 120 51 212.5 q43 92.5 137 168.5 q63 51 126 110 q63 59 77 143 q10 66 -14.5 113.5 q-24.5 47.5 -97.5 48.5 q-79 2 -124.5 -49.5 q-45.5 -51.5 -59.5 -122.5 l-283 -2 q15 199 151 305 q136 106 330 103 q176 -4 288.5 -102 q112.5 -98 99.5 -283 q-10 -139 -102 -232 q-92 -93 -193 -174 q-115 -91 -139 -238 ZM229 136 q-1 67 43 112.5 q44 45.5 112 46.5 q65 1 111.5 -40.5 q46.5 -41.5 48.5 -108.5 q1 -68 -43.5 -113 q-44.5 -45 -112.5 -47 q-65 -1 -111 41 q-46 42 -48 109 Z" /><glyph glyph-name="at" unicode="@" d="M1067 -367 q-77 -51 -176 -69 q-99 -18 -190 -17 q-267 3 -423.5 129 q-156.5 126 -210 332.5 q-53.5 206.5 -12.5 448.5 q42 250 177 470 q135 220 345.5 356 q210.5 136 479.5 133 q253 -3 405.5 -125.5 q152.5 -122.5 208 -320.5 q55.5 -198 17.5 -428 q-21 -131 -80.5 -262.5 q-59.5 -131.5 -163 -218 q-103.5 -86.5 -257.5 -82.5 q-73 1 -134 36 q-61 35 -83 108 q-53 -61 -119 -102 q-66 -41 -150 -40 q-115 3 -169 76.5 q-54 73.5 -64.5 175.5 q-10.5 102 5.5 191 q24 128 92 260.5 q68 132.5 177.5 221 q109.5 88.5 258.5 85.5 q87 -2 156.5 -32.5 q69.5 -30.5 139.5 -78.5 l-138 -578 q-10 -50 -4.5 -104.5 q5.5 -54.5 73.5 -58.5 q92 -4 150 66.5 q58 70.5 89 166 q31 95.5 43 163.5 q32 182 6 345 q-26 163 -134 266.5 q-108 103.5 -322 106.5 q-222 4 -389.5 -112.5 q-167.5 -116.5 -274.5 -300.5 q-107 -184 -145 -383 q-36 -183 -11 -350.5 q25 -167.5 134 -275 q109 -107.5 325 -109.5 q88 -1 173.5 17.5 q85.5 18.5 165.5 51.5 l29 -158 ZM696 423 q-7 -39 -13.5 -100.5 q-6.5 -61.5 10.5 -111.5 q17 -50 79 -53 q66 -3 118.5 57 q52.5 60 72.5 115 l126 475 q-35 11 -69 12 q-103 3 -168.5 -61 q-65.5 -64 -102 -157 q-36.5 -93 -53.5 -176 Z" /><glyph glyph-name="A" unicode="a" d="M-103 0 l778 1456 l271 0 l277 -1456 l-301 0 l-45 300 l-508 0 l-150 -300 l-322 0 ZM489 543 l352 0 l-81 543 l-271 -543 Z" /><glyph glyph-name="B" unicode="b" d="M1144 436 q-15 -233 -182 -335.5 q-167 -102.5 -381 -100.5 l-560 0 l253 1456 l478 -1 q124 -2 236 -39 q112 -37 179 -121 q67 -84 57 -228 q-8 -122 -78 -200 q-70 -78 -177 -124 q97 -35 139.5 -122 q42.5 -87 35.5 -185 ZM526 1213 l-64 -366 l187 -1 q96 0 178 41.5 q82 41.5 99 147.5 q15 99 -37.5 137 q-52.5 38 -142.5 40 l-220 1 ZM855 440 q29 186 -153 194 l-276 1 l-69 -393 l231 -1 q96 1 173.5 49 q77.5 48 93.5 150 Z" /><glyph glyph-name="C" unicode="c" d="M916 484 l291 2 q-29 -241 -209.5 -376 q-180.5 -135 -415.5 -130 q-197 4 -310.5 106.5 q-113.5 102.5 -154 261.5 q-40.5 159 -18.5 332 l12 95 q26 183 112.5 345 q86.5 162 231.5 261.5 q145 99.5 347 95.5 q238 -4 364.5 -146 q126.5 -142 139.5 -371 l-292 1 q0 121 -48 193.5 q-48 72.5 -178 77.5 q-128 4 -206 -65.5 q-78 -69.5 -117.5 -176 q-39.5 -106.5 -54.5 -213.5 l-13 -98 q-11 -88 -11 -192.5 q0 -104.5 44 -181 q44 -76.5 165 -80.5 q133 -5 214 63.5 q81 68.5 107 195.5 Z" /><glyph glyph-name="D" unicode="d" d="M21 0 l253 1456 l418 -1 q195 -4 323 -101.5 q128 -97.5 184 -254 q56 -156.5 35 -339.5 l-8 -65 q-27 -197 -128 -354.5 q-101 -157.5 -261.5 -249.5 q-160.5 -92 -364.5 -91 l-451 0 ZM686 1212 l-160 1 l-169 -971 l122 -1 q203 -1 312 133.5 q109 134.5 136 320.5 l9 68 q13 102 2 204 q-11 102 -68.5 171.5 q-57.5 69.5 -183.5 73.5 Z" /><glyph glyph-name="E" unicode="e" d="M21 0 l253 1456 l947 0 l-43 -243 l-652 0 l-61 -347 l559 0 l-42 -235 l-557 0 l-68 -389 l656 0 l-42 -242 l-950 0 Z" /><glyph glyph-name="F" unicode="f" d="M21 0 l253 1456 l923 0 l-43 -243 l-628 0 l-66 -376 l559 0 l-42 -242 l-558 0 l-104 -595 l-294 0 Z" /><glyph glyph-name="G" unicode="g" d="M1274 765 l-91 -582 q-96 -119 -259.5 -162 q-163.5 -43 -306.5 -40 q-200 2 -320 103 q-120 101 -166 260.5 q-46 159.5 -24 339.5 l12 87 q26 187 112 349.5 q86 162.5 232 261.5 q146 99 352 95 q234 -4 360 -131.5 q126 -127.5 143 -354.5 l-282 1 q-9 108 -59 173.5 q-50 65.5 -166 69.5 q-129 5 -210 -66 q-81 -71 -124.5 -180 q-43.5 -109 -59.5 -216 l-12 -90 q-13 -97 -5 -202.5 q8 -105.5 62 -180 q54 -74.5 179 -77.5 q69 -2 132.5 14.5 q63.5 16.5 120.5 56.5 l49 251 l-265 0 l39 220 l557 0 Z" /><glyph glyph-name="H" unicode="h" d="M881 0 l108 624 l-565 0 l-109 -624 l-294 0 l253 1456 l294 0 l-103 -590 l566 0 l102 590 l293 0 l-252 -1456 l-293 0 Z" /><glyph glyph-name="I" unicode="i" d="M585 1456 l-252 -1456 l-293 0 l252 1456 l293 0 Z" /><glyph glyph-name="J" unicode="j" d="M672 448 l172 1008 l293 0 l-171 -1008 q-29 -210 -175 -341.5 q-146 -131.5 -362 -127.5 q-209 4 -320 124 q-111 120 -104 328 l294 -1 q-5 -84 22.5 -145 q27.5 -61 123.5 -63 q100 -3 156.5 66.5 q56.5 69.5 70.5 159.5 Z" /><glyph glyph-name="K" unicode="k" d="M837 0 l-260 582 l-192 -178 l-70 -404 l-294 0 l253 1456 l294 0 l-112 -641 l147 166 l439 475 l382 0 l-627 -661 l374 -795 l-334 0 Z" /><glyph glyph-name="L" unicode="l" d="M975 242 l-43 -242 l-911 0 l253 1456 l294 0 l-211 -1214 l618 0 Z" /><glyph glyph-name="M" unicode="m" d="M829 403 l544 1053 l389 0 l-253 -1456 l-294 0 l72 415 l142 646 l-557 -1061 l-201 0 l-195 1098 l-95 -717 l-66 -381 l-294 0 l253 1456 l377 0 l178 -1053 Z" /><glyph glyph-name="N" unicode="n" d="M1425 1456 l-252 -1456 l-284 0 l-405 972 l-169 -972 l-294 0 l253 1456 l284 0 l405 -973 l169 973 l293 0 Z" /><glyph glyph-name="O" unicode="o" d="M1315 760 l-9 -64 q-25 -187 -114 -352 q-89 -165 -238 -266.5 q-149 -101.5 -354 -97.5 q-198 4 -315 109.5 q-117 105.5 -161 268 q-44 162.5 -23 337.5 l8 65 q26 186 115 351 q89 165 238 267 q149 102 354 98 q199 -4 315.5 -109.5 q116.5 -105.5 160 -268.5 q43.5 -163 23.5 -338 ZM1008 695 l9 68 q11 90 7 197 q-4 107 -52.5 185.5 q-48.5 78.5 -168.5 83.5 q-130 5 -212 -68 q-82 -73 -126 -183.5 q-44 -110.5 -59 -218.5 l-8 -66 q-11 -89 -6.5 -196.5 q4.5 -107.5 53.5 -186.5 q49 -79 169 -84 q128 -5 210 68.5 q82 73.5 125.5 183.5 q43.5 110 58.5 217 Z" /><glyph glyph-name="P" unicode="p" d="M682 513 l-277 1 l-90 -514 l-294 0 l253 1456 l534 -1 q209 -5 346 -129.5 q137 -124.5 120 -342.5 q-19 -240 -194.5 -355 q-175.5 -115 -397.5 -115 ZM526 1213 l-80 -457 l243 -2 q110 1 191.5 57 q81.5 56 97.5 170 q14 97 -30.5 161.5 q-44.5 64.5 -145.5 69.5 l-276 1 Z" /><glyph glyph-name="Q" unicode="q" d="M1157 -104 l-199 -156 l-254 248 q-61 -8 -108 -7 q-197 3 -314 109 q-117 106 -160.5 268.5 q-43.5 162.5 -22.5 336.5 l8 65 q26 186 115 351.5 q89 165.5 238 267 q149 101.5 354 97.5 q198 -4 315 -109 q117 -105 160.5 -267 q43.5 -162 22.5 -337 l-8 -67 q-25 -182 -107 -340.5 q-82 -158.5 -240 -260.5 l200 -199 ZM1007 695 l9 68 q11 90 6.5 197 q-4.5 107 -53 185.5 q-48.5 78.5 -168.5 83.5 q-129 5 -210.5 -67.5 q-81.5 -72.5 -126 -182.5 q-44.5 -110 -59.5 -217 l-9 -68 q-11 -89 -6 -196.5 q5 -107.5 53.5 -187 q48.5 -79.5 168.5 -84.5 q129 -5 210.5 68 q81.5 73 125.5 183.5 q44 110.5 59 217.5 Z" /><glyph glyph-name="R" unicode="r" d="M817 0 l-171 534 l-238 0 l-93 -534 l-294 0 l253 1456 l508 -1 q201 -4 340 -108 q139 -104 123 -323 q-11 -155 -94 -257.5 q-83 -102.5 -225 -158.5 l204 -592 l0 -16 l-313 0 ZM526 1213 l-76 -437 l217 -2 q108 1 187 58.5 q79 57.5 95 168.5 q30 203 -173 211 l-250 1 Z" /><glyph glyph-name="S" unicode="s" d="M822 389 q18 104 -60.5 148.5 q-78.5 44.5 -159.5 74.5 q-102 39 -199 95.5 q-97 56.5 -157.5 142 q-60.5 85.5 -53.5 211.5 q8 144 97 237 q89 93 217.5 137 q128.5 44 256.5 41 q203 -4 337 -122.5 q134 -118.5 131 -327.5 l-292 0 q9 206 -193 210 q-86 2 -166.5 -40 q-80.5 -42 -96.5 -136 q-11 -61 28 -100.5 q39 -39.5 96.5 -63 q57.5 -23.5 101.5 -39.5 q110 -40 205.5 -98.5 q95.5 -58.5 152 -147.5 q56.5 -89 47.5 -219 q-10 -147 -94.5 -239 q-84.5 -92 -209.5 -134 q-125 -42 -257 -40 q-218 4 -369 128 q-151 124 -146 353 l293 -1 q-13 -238 234 -241 q85 -1 162.5 38.5 q77.5 39.5 94.5 132.5 Z" /><glyph glyph-name="T" unicode="t" d="M145 1213 l43 243 l1151 0 l-43 -243 l-431 0 l-210 -1213 l-293 0 l210 1213 l-427 0 Z" /><glyph glyph-name="U" unicode="u" d="M1052 1456 l294 0 l-164 -959 q-33 -243 -200.5 -382.5 q-167.5 -139.5 -411.5 -135.5 q-230 3 -364.5 143 q-134.5 140 -108.5 374 l163 960 l294 0 l-163 -961 q-15 -112 26.5 -190.5 q41.5 -78.5 165.5 -82.5 q131 -5 208 72.5 q77 77.5 97 201.5 l164 960 Z" /><glyph glyph-name="V" unicode="v" d="M1433 1456 l-720 -1456 l-305 0 l-262 1456 l314 0 l147 -1091 l490 1091 l336 0 Z" /><glyph glyph-name="W" unicode="w" d="M1845 1456 l-540 -1456 l-295 0 l-77 970 l-381 -970 l-295 0 l-87 1456 l286 0 l29 -1027 l392 1027 l249 0 l70 -1030 l351 1030 l298 0 Z" /><glyph glyph-name="X" unicode="x" d="M495 1456 l185 -499 l342 499 l352 0 l-534 -736 l301 -720 l-324 0 l-191 508 l-350 -508 l-357 0 l548 748 l-293 708 l321 0 Z" /><glyph glyph-name="Y" unicode="y" d="M463 1456 l178 -654 l406 654 l337 0 l-637 -945 l-88 -511 l-297 0 l95 545 l-303 910 l309 1 Z" /><glyph glyph-name="Z" unicode="z" d="M177 1213 l43 243 l1061 0 l-33 -187 l-869 -1025 l707 -2 l-42 -242 l-1077 0 l33 191 l872 1020 l-695 2 Z" /><glyph glyph-name="bracketleft" unicode="[" d="M709 1695 l-35 -223 l-139 0 l-248 -1589 l139 0 l-35 -222 l-422 0 l318 2034 l422 0 Z" /><glyph glyph-name="backslash" unicode="\" d="M470 -125 l-316 1581 l275 0 l316 -1581 l-275 0 Z" /><glyph glyph-name="bracketright" unicode="]" d="M148 1472 l35 223 l422 0 l-318 -2034 l-422 0 l35 222 l139 0 l249 1589 l-140 0 Z" /><glyph glyph-name="asciicircum" unicode="^" d="M58 729 l417 727 l205 0 l163 -727 l-211 0 l-88 453 l-248 -453 l-238 0 Z" /><glyph glyph-name="underscore" unicode="_" d="M782 0 l-39 -226 l-886 0 l40 226 l885 0 Z" /><glyph glyph-name="grave" unicode="`" d="M496 1536 l142 -309 l-211 1 l-223 306 l292 2 Z" /><glyph glyph-name="a" unicode="a" d="M627 0 q-13 41 -11 98 q-57 -57 -126 -88 q-69 -31 -151 -30 q-135 2 -231 89 q-96 87 -91 227 q5 142 86 221.5 q81 79.5 200.5 112 q119.5 32.5 240.5 32.5 l132 -2 l15 66 q11 67 -14.5 114 q-25.5 47 -99.5 49 q-143 4 -170 -131 l-283 -1 q6 121 80 198 q74 77 182 113.5 q108 36.5 215 34.5 q169 -4 280.5 -103 q111.5 -99 93.5 -278 l-74 -458 q-9 -59 -14.5 -123.5 q-5.5 -64.5 18.5 -121.5 l-1 -19 l-277 0 ZM409 199 q64 -2 118.5 28 q54.5 30 94.5 78 l35 188 l-96 1 q-86 -1 -165 -41 q-79 -40 -92 -136 q-8 -54 22 -85.5 q30 -31.5 83 -32.5 Z" /><glyph glyph-name="b" unicode="b" d="M1043 532 q-16 -134 -70 -262.5 q-54 -128.5 -154.5 -211 q-100.5 -82.5 -256.5 -78.5 q-170 4 -260 137 l-41 -117 l-258 0 l266 1536 l284 0 l-108 -552 q113 120 264 117 q149 -2 226 -87.5 q77 -85.5 100 -211 q23 -125.5 11 -248.5 l-3 -22 ZM626 869 q-68 2 -118.5 -29 q-50.5 -31 -88.5 -84 l-77 -431 q37 -108 161 -111 q91 -3 144 46 q53 49 78.5 124 q25.5 75 35.5 149 l2 21 q6 59 5.5 131.5 q-0.5 72.5 -30.5 126.5 q-30 54 -112 57 Z" /><glyph glyph-name="c" unicode="c" d="M480 212 q78 -2 130.5 42.5 q52.5 44.5 67.5 118.5 l266 1 q-13 -183 -153.5 -290.5 q-140.5 -107.5 -317.5 -104.5 q-234 5 -336.5 168.5 q-102.5 163.5 -83.5 377.5 l3 29 q24 225 166 389 q142 164 384 159 q189 -4 293.5 -122 q104.5 -118 102.5 -302 l-264 0 q1 76 -33 132.5 q-34 56.5 -118 59.5 q-88 3 -139.5 -46.5 q-51.5 -49.5 -76 -124 q-24.5 -74.5 -32.5 -146.5 l-3 -28 q-6 -60 -4 -132.5 q2 -72.5 33.5 -125.5 q31.5 -53 114.5 -55 Z" /><glyph glyph-name="d" unicode="d" d="M655 0 l16 116 q-56 -64 -125.5 -101 q-69.5 -37 -156.5 -35 q-144 3 -221.5 89.5 q-77.5 86.5 -103 211.5 q-25.5 125 -13.5 244 l3 22 q16 134 72 263 q56 129 158 212.5 q102 83.5 256 79.5 q152 -4 244 -119 l106 553 l283 0 l-266 -1536 l-252 0 ZM336 526 q-7 -57 -5 -129 q2 -72 32.5 -125.5 q30.5 -53.5 109.5 -56.5 q67 -3 117 28.5 q50 31.5 89 81.5 l77 433 q-39 108 -156 112 q-87 3 -141.5 -48 q-54.5 -51 -83 -127 q-28.5 -76 -37.5 -148 l-2 -21 Z" /><glyph glyph-name="e" unicode="e" d="M938 174 q-69 -102 -187 -149 q-118 -47 -237 -45 q-223 3 -348 153.5 q-125 150.5 -108 367.5 l3 40 q15 150 86 279.5 q71 129.5 191 207.5 q120 78 281 74 q227 -4 324 -164 q97 -160 74 -368 l-16 -123 l-664 0 q-3 -97 47.5 -163.5 q50.5 -66.5 153.5 -69.5 q80 -2 147.5 30.5 q67.5 32.5 122.5 88.5 l130 -159 ZM604 870 q-102 3 -158.5 -69 q-56.5 -72 -87.5 -157 l388 0 l6 25 q13 82 -23.5 140.5 q-36.5 58.5 -124.5 60.5 Z" /><glyph glyph-name="f" unicode="f" d="M722 871 l-208 0 l-151 -871 l-284 0 l152 871 l-157 0 l37 211 l156 1 l12 93 q23 179 138 282.5 q115 103.5 298 100.5 q39 0 77.5 -6.5 q38.5 -6.5 76.5 -14.5 l-25 -225 q-44 12 -84 12 q-74 1 -127 -37 q-53 -38 -67 -112 l-16 -94 l209 0 l-37 -211 Z" /><glyph glyph-name="g" unicode="g" d="M934 37 q-31 -224 -188.5 -346 q-157.5 -122 -380.5 -117 q-108 3 -210 46.5 q-102 43.5 -172 127.5 l140 172 q94 -119 238 -122 q116 -3 191.5 61 q75.5 64 102.5 174 l16 63 q-55 -56 -120.5 -86.5 q-65.5 -30.5 -144.5 -29.5 q-146 3 -226.5 88.5 q-80.5 85.5 -108.5 210.5 q-28 125 -16 246 l2 22 q17 136 76 265 q59 129 164.5 211.5 q105.5 82.5 260.5 78.5 q77 -1 144.5 -30.5 q67.5 -29.5 113.5 -93.5 l37 105 l259 -1 l-178 -1045 ZM337 526 q-6 -60 -1 -131.5 q5 -71.5 38.5 -124 q33.5 -52.5 113.5 -55.5 q64 -2 114.5 25 q50.5 27 90.5 74 l84 456 q-42 96 -159 100 q-132 4 -197.5 -104 q-65.5 -108 -80.5 -220 l-3 -20 Z" /><glyph glyph-name="h" unicode="h" d="M614 868 q-62 2 -110.5 -24 q-48.5 -26 -87.5 -72 l-137 -772 l-282 0 l266 1536 l283 0 l-112 -573 q58 65 131 103 q73 38 162 36 q183 -3 246 -130.5 q63 -127.5 47 -289.5 l-114 -682 l-283 0 l115 686 q10 77 -14 128.5 q-24 51.5 -110 53.5 Z" /><glyph glyph-name="i" unicode="i" d="M238 1357 q-2 68 43 111.5 q45 43.5 112 44.5 q65 1 111.5 -39 q46.5 -40 48.5 -107 q1 -68 -44 -111 q-45 -43 -111 -44 q-65 -2 -112 38 q-47 40 -48 107 ZM490 1082 l-188 -1082 l-284 0 l188 1082 l284 0 Z" /><glyph glyph-name="j" unicode="j" d="M234 1357 q-2 68 42.5 111.5 q44.5 43.5 111.5 44.5 q65 1 111.5 -39 q46.5 -40 48.5 -107 q1 -68 -44 -111 q-45 -43 -111 -44 q-65 -1 -111.5 39 q-46.5 40 -47.5 106 ZM206 1082 l284 0 l-194 -1142 q-22 -171 -124.5 -276 q-102.5 -105 -282.5 -104 q-39 1 -76.5 6 q-37.5 5 -75.5 13 l23 230 q22 -5 44 -8.5 q22 -3.5 44 -3.5 q135 -2 162 143 l196 1142 Z" /><glyph glyph-name="k" unicode="k" d="M663 0 l-192 431 l-130 -113 l-55 -318 l-282 0 l266 1537 l283 0 l-145 -833 l56 59 l319 319 l361 0 l-471 -464 l300 -618 l-310 0 Z" /><glyph glyph-name="l" unicode="l" d="M568 1536 l-266 -1536 l-284 0 l267 1536 l283 0 Z" /><glyph glyph-name="m" unicode="m" d="M613 868 q-61 2 -107.5 -26.5 q-46.5 -28.5 -84.5 -74.5 l-135 -767 l-283 0 l187 1082 l264 1 l-22 -122 q129 144 316 141 q85 -2 157 -40.5 q72 -38.5 98 -124.5 q66 78 148.5 122.5 q82.5 44.5 187.5 42.5 q180 -3 240.5 -128 q60.5 -125 44.5 -285 l-115 -689 l-283 0 l116 692 q8 73 -12.5 124 q-20.5 51 -104.5 53 q-66 1 -114 -33.5 q-48 -34.5 -84 -86.5 q-2 -18 -4 -27 l-126 -722 l-282 0 l116 689 q9 74 -12.5 125.5 q-21.5 51.5 -105.5 53.5 Z" /><glyph glyph-name="n" unicode="n" d="M614 868 q-63 2 -111.5 -27 q-48.5 -29 -87.5 -76 l-135 -765 l-282 0 l188 1082 l262 1 l-22 -127 q62 70 141 109 q79 39 174 37 q179 -3 237 -129.5 q58 -126.5 43 -283.5 l-115 -689 l-283 0 l116 692 q9 77 -15.5 126 q-24.5 49 -109.5 50 Z" /><glyph glyph-name="o" unicode="o" d="M54 524 l2 21 q16 153 87.5 280.5 q71.5 127.5 192 203.5 q120.5 76 283.5 73 q234 -4 342.5 -168 q108.5 -164 89.5 -381 l-2 -22 q-25 -227 -173 -391.5 q-148 -164.5 -390 -159.5 q-232 4 -342 166 q-110 162 -90 378 ZM339 545 l-2 -22 q-6 -64 0.5 -135.5 q6.5 -71.5 42.5 -122.5 q36 -51 120 -53 q133 -4 193 102.5 q60 106.5 73 217.5 l2 21 q7 64 0.5 136.5 q-6.5 72.5 -43 125 q-36.5 52.5 -120.5 55.5 q-89 2 -144.5 -48.5 q-55.5 -50.5 -84 -126.5 q-28.5 -76 -37.5 -150 Z" /><glyph glyph-name="p" unicode="p" d="M562 -21 q-156 4 -249 118 l-99 -513 l-283 0 l259 1498 l260 1 l-17 -108 q55 62 123 95 q68 33 152 32 q148 -3 225.5 -88.5 q77.5 -85.5 101 -210.5 q23.5 -125 11.5 -247 l-3 -22 q-15 -132 -71 -261 q-56 -129 -157 -213 q-101 -84 -253 -81 ZM624 868 q-65 3 -115 -25 q-50 -28 -88 -79 l-81 -446 q39 -103 160 -106 q87 -2 141 49 q54 51 82 126.5 q28 75.5 38 146.5 l2 21 q6 58 4 130 q-2 72 -33 126 q-31 54 -110 57 Z" /><glyph glyph-name="q" unicode="q" d="M1095 1082 l-260 -1498 l-284 0 l101 510 q-113 -116 -262 -114 q-146 3 -223 90 q-77 87 -102 212.5 q-25 125.5 -13 244.5 l3 23 q16 134 71.5 262.5 q55.5 128.5 157.5 211 q102 82.5 257 78.5 q169 -4 257 -133 l45 114 l252 -1 ZM336 528 q-7 -57 -5 -129.5 q2 -72.5 32.5 -127.5 q30.5 -55 109.5 -58 q65 -3 115 26 q50 29 89 79 l82 451 q-39 98 -157 102 q-88 2 -142.5 -48 q-54.5 -50 -83 -126 q-28.5 -76 -38.5 -148 l-2 -21 Z" /><glyph glyph-name="r" unicode="r" d="M649 822 q-152 3 -237 -112 l-126 -710 l-283 0 l188 1082 l265 1 l-25 -132 q45 67 106 110.5 q61 43.5 146 43.5 q41 -1 97 -15 l-35 -278 q-23 3 -47.5 6.5 q-24.5 3.5 -48.5 3.5 Z" /><glyph glyph-name="s" unicode="s" d="M630 306 q10 47 -22 73 q-32 26 -77.5 38.5 q-45.5 12.5 -78.5 21.5 q-122 31 -232 102 q-110 71 -105 218 q4 116 73 192.5 q69 76.5 171 114.5 q102 38 205 36 q163 -2 286 -88.5 q123 -86.5 125 -261.5 l-280 1 q2 141 -138 142 q-57 0 -109.5 -30.5 q-52.5 -30.5 -63.5 -91.5 q-12 -66 51.5 -88.5 q63.5 -22.5 109.5 -33.5 q90 -22 173.5 -58.5 q83.5 -36.5 136.5 -101.5 q53 -65 49 -173 q-4 -121 -78.5 -196 q-74.5 -75 -182 -109.5 q-107.5 -34.5 -212.5 -32.5 q-164 3 -291 97.5 q-127 94.5 -131 269.5 l267 -2 q3 -156 165 -157 q60 -1 118 25.5 q58 26.5 71 92.5 Z" /><glyph glyph-name="t" unicode="t" d="M541 6 q-74 -26 -161 -24 q-144 2 -209.5 90.5 q-65.5 88.5 -53.5 227.5 l93 571 l-154 0 l37 211 l153 0 l47 267 l283 0 l-47 -267 l179 0 l-37 -211 l-178 0 l-93 -543 q-6 -50 8 -78 q14 -28 68 -29 q21 -1 42.5 1 q21.5 2 42.5 5 l-20 -221 Z" /><glyph glyph-name="u" unicode="u" d="M643 0 l22 113 q-121 -136 -299 -133 q-176 3 -244.5 122.5 q-68.5 119.5 -53.5 279.5 l117 700 l282 0 l-119 -703 q-8 -65 14 -113 q22 -48 95 -51 q132 -5 219 102 l134 765 l284 0 l-188 -1082 l-263 0 Z" /><glyph glyph-name="v" unicode="v" d="M1070 1082 l-523 -1082 l-269 0 l-186 1082 l287 0 l80 -723 l307 723 l304 0 Z" /><glyph glyph-name="w" unicode="w" d="M1518 1082 l-454 -1082 l-236 0 l-81 678 l-316 -678 l-236 0 l-80 1082 l264 0 l18 -681 l308 681 l204 0 l72 -686 l256 686 l281 0 Z" /><glyph glyph-name="x" unicode="x" d="M404 1082 l120 -320 l227 320 l317 0 l-392 -543 l220 -539 l-285 0 l-135 339 l-238 -339 l-319 0 l408 568 l-210 514 l287 0 Z" /><glyph glyph-name="y" unicode="y" d="M452 -163 q-55 -118 -143 -198 q-88 -80 -229 -80 q-34 1 -68 7.5 q-34 6.5 -67 14.5 l22 220 q26 -3 39 -3 q146 -1 210 117 l54 100 l-177 1067 l292 0 l77 -671 l310 671 l313 0 l-633 -1245 Z" /><glyph glyph-name="z" unicode="z" d="M129 849 l41 233 l843 0 l-32 -185 l-609 -662 l509 -2 l-41 -233 l-873 0 l33 191 l605 656 l-476 2 Z" /><glyph glyph-name="braceleft" unicode="{" d="M172 311 q10 84 -16 139 q-26 55 -117 63 l19 207 q96 4 147.5 61 q51.5 57 65.5 148 l28 203 q24 187 127.5 301 q103.5 114 282.5 168 l47 -166 q-99 -38 -143 -121.5 q-44 -83.5 -58 -181.5 l-28 -203 q-27 -214 -226 -316 q74 -54 102.5 -134.5 q28.5 -80.5 20.5 -169.5 l-27 -204 q-12 -88 -1 -174.5 q11 -86.5 102 -129.5 l-64 -160 q-161 54 -234.5 176 q-73.5 122 -55.5 289 l28 205 Z" /><glyph glyph-name="bar" unicode="|" d="M474 1456 l-270 -1726 l-172 0 l270 1726 l172 0 Z" /><glyph glyph-name="braceright" unicode="}" d="M490 928 q-10 -85 16 -140.5 q26 -55.5 117 -63.5 l-19 -207 q-96 -4 -147.5 -60.5 q-51.5 -56.5 -65.5 -147.5 l-28 -203 q-25 -186 -128 -301 q-103 -115 -282 -169 l-47 167 q99 37 143 121 q44 84 58 182 l28 203 q27 215 231 315 q-76 53 -106 134 q-30 81 -22 171 l27 204 q12 88 1 174.5 q-11 86.5 -102 129.5 l64 158 q160 -53 234 -174.5 q74 -121.5 56 -288.5 l-28 -204 Z" /><glyph glyph-name="asciitilde" unicode="~" d="M1001 794 l206 1 q-7 -102 -47.5 -199.5 q-40.5 -97.5 -117.5 -160.5 q-77 -63 -194 -60 q-81 1 -143.5 39 q-62.5 38 -116.5 95 q-29 30 -63.5 57 q-34.5 27 -79.5 27 q-74 0 -109.5 -59 q-35.5 -59 -46.5 -121 l-209 3 q7 102 47.5 198 q40.5 96 117.5 157 q77 61 193 58 q81 -2 145.5 -39.5 q64.5 -37.5 117.5 -94.5 q29 -30 62.5 -56.5 q33.5 -26.5 78.5 -27.5 q75 -1 112 59.5 q37 60.5 47 123.5 Z" /><glyph glyph-name="cent" unicode="¢" d="M971 375 q-11 -164 -123.5 -261.5 q-112.5 -97.5 -266.5 -124.5 l-49 -234 l-196 0 l50 236 q-189 43 -253.5 201.5 q-64.5 158.5 -47.5 331.5 l3 29 q25 207 142.5 357.5 q117.5 150.5 330.5 183.5 l47 224 l196 0 l-47 -227 q148 -37 215 -152.5 q67 -115.5 64 -260.5 l-263 0 q1 75 -32 132 q-33 57 -117 60 q-89 3 -141.5 -46.5 q-52.5 -49.5 -78 -124 q-25.5 -74.5 -34.5 -146.5 l-3 -28 q-7 -60 -6.5 -132.5 q0.5 -72.5 31 -125.5 q30.5 -53 114.5 -56 q78 -2 131 43 q53 45 69 119 l265 2 Z" /><glyph glyph-name="sterling" unicode="£" d="M3 0 l25 242 l93 -4 q58 23 78.5 75 q20.5 52 29.5 109 l20 155 l-158 0 l41 235 l151 0 l27 227 q23 199 159.5 320 q136.5 121 338.5 116 q191 -4 296.5 -116 q105.5 -112 100.5 -301 l-279 1 q3 72 -26 123 q-29 51 -110 53 q-83 2 -129.5 -59.5 q-46.5 -61.5 -57.5 -135.5 l-27 -228 l301 0 l-41 -235 l-291 0 l-16 -139 q-15 -115 -101 -200 l639 4 l-44 -242 l-1020 0 Z" /><glyph glyph-name="yen" unicode="¥" d="M899 279 l-279 0 l-49 -279 l-292 0 l49 279 l-297 0 l30 173 l296 0 l21 116 l-297 0 l30 174 l245 0 l-190 714 l292 0 l120 -562 l315 562 l319 0 l-439 -712 l208 -2 l-33 -174 l-278 0 l-20 -116 l280 0 l-31 -173 Z" /><glyph glyph-name="dieresis" unicode="¨" d="M210 1363 q-1 56 38.5 93 q39.5 37 93.5 38 q54 1 95.5 -34 q41.5 -35 42.5 -91 q2 -55 -37 -92.5 q-39 -37.5 -94 -38.5 q-54 -1 -95.5 34 q-41.5 35 -43.5 91 ZM683 1362 q-1 55 38 92.5 q39 37.5 93 38.5 q54 1 96 -34 q42 -35 44 -91 q1 -56 -38.5 -93 q-39.5 -37 -93.5 -38 q-54 -1 -95.5 34 q-41.5 35 -43.5 91 Z" /><glyph glyph-name="copyright" unicode="©" d="M104 722 q21 199 129.5 372 q108.5 173 279.5 279.5 q171 106.5 379 102.5 q199 -3 338 -110.5 q139 -107.5 205 -275.5 q66 -168 47 -355 q-21 -197 -129.5 -371 q-108.5 -174 -279.5 -281 q-171 -107 -378 -103 q-200 3 -339 111 q-139 108 -205 276.5 q-66 168.5 -47 354.5 ZM225 722 q-21 -152 26 -292 q47 -140 156.5 -231 q109.5 -91 275.5 -94 q174 -4 319.5 85.5 q145.5 89.5 240.5 235 q95 145.5 118 310.5 q21 151 -26 291 q-47 140 -156.5 230.5 q-109.5 90.5 -274.5 93.5 q-174 4 -320 -85 q-146 -89 -241 -234 q-95 -145 -118 -310 ZM927 596 l152 1 q-10 -151 -101.5 -235 q-91.5 -84 -244.5 -80 q-161 4 -235.5 121 q-74.5 117 -63.5 266 l12 119 q16 157 113 274 q97 117 267 114 q146 -3 225.5 -87.5 q79.5 -84.5 77.5 -229.5 l-152 2 q5 81 -26.5 130 q-31.5 49 -119.5 51 q-108 2 -163.5 -78 q-55.5 -80 -68.5 -175 l-14 -121 q-8 -82 16.5 -164.5 q24.5 -82.5 125.5 -86.5 q91 -4 138.5 45 q47.5 49 61.5 134 Z" /><glyph glyph-name="guillemotleft" unicode="«" d="M277 123 l-217 389 l0 21 l330 391 l204 0 l-315 -416 l160 -382 l-162 -3 ZM651 123 l-217 389 l0 21 l330 391 l204 0 l-315 -416 l160 -382 l-162 -3 Z" /><glyph glyph-name="registered" unicode="®" d="M104 722 q21 199 129.5 372 q108.5 173 279.5 279 q171 106 379 103 q199 -3 338 -110.5 q139 -107.5 205 -275.5 q66 -168 47 -355 q-21 -197 -129.5 -371 q-108.5 -174 -279.5 -281 q-171 -107 -378 -103 q-200 3 -339 111 q-139 108 -205 276.5 q-66 168.5 -47 354.5 ZM225 722 q-22 -152 25.5 -292 q47.5 -140 157 -231 q109.5 -91 274.5 -94 q175 -4 320.5 85.5 q145.5 89.5 240.5 235 q95 145.5 118 310.5 q21 151 -26 291 q-47 140 -156.5 230.5 q-109.5 90.5 -274.5 93.5 q-174 4 -320 -85 q-146 -89 -241 -234 q-95 -145 -118 -310 ZM810 651 l-167 2 l-53 -337 l-149 0 l134 850 l256 -1 q117 -3 206.5 -63 q89.5 -60 83.5 -191 q-3 -68 -42 -111 q-39 -43 -94 -76 q50 -37 63 -93.5 q13 -56.5 8 -115.5 l-6 -56 q-4 -33 -2.5 -63 q1.5 -30 4.5 -63 l-1 -19 l-148 1 q-6 36 -4.5 72.5 q1.5 36.5 5.5 73.5 l7 55 q7 62 -14 96.5 q-21 34.5 -87 38.5 ZM702 1033 l-38 -246 l115 -1 q60 2 122 29 q62 27 76 94 q15 75 -27.5 98 q-42.5 23 -106.5 25 l-141 1 Z" /><glyph glyph-name="acute" unicode="´" d="M187 1227 l239 309 l327 0 l-318 -309 l-248 0 Z" /><glyph glyph-name="cedilla" unicode="¸" d="M13 6 l210 3 l-20 -64 q125 -26 125 -162 q0 -100 -60.5 -152.5 q-60.5 -52.5 -147 -72.5 q-86.5 -20 -165.5 -23 l8 169 q43 3 81.5 22 q38.5 19 47.5 67 q10 52 -38.5 60 q-48.5 8 -83.5 11 l43 142 Z" /><glyph glyph-name="guillemotright" unicode="»" d="M307 926 l218 -389 l0 -21 l-332 -391 l-202 0 l315 416 l-161 382 l162 3 ZM688 926 l218 -389 l0 -21 l-332 -391 l-202 0 l315 416 l-161 382 l162 3 Z" /><glyph glyph-name="dotlessi" unicode="&#x131;" d="M496 1082 l-188 -1082 l-283 0 l188 1082 l283 0 Z" /><glyph glyph-name="circumflex" unicode="&#x2c6;" d="M716 1538 l261 -277 l1 -21 l-216 5 l-124 143 l-175 -142 l-228 -5 l0 23 l321 273 l160 1 Z" /><glyph glyph-name="ring" unicode="&#x2da;" d="M242 1319 q-1 91 66.5 152 q67.5 61 156.5 61 q84 0 146.5 -56.5 q62.5 -56.5 63.5 -142.5 q1 -92 -66.5 -151 q-67.5 -59 -156.5 -59 q-83 0 -146 54.5 q-63 54.5 -64 141.5 ZM355 1319 q-6 -40 15.5 -70 q21.5 -30 64.5 -30 q48 -1 84.5 33 q36.5 34 43.5 81 q6 40 -15.5 71 q-21.5 31 -64.5 31 q-48 1 -84.5 -34 q-36.5 -35 -43.5 -82 Z" /><glyph glyph-name="tilde" unicode="&#x2dc;" d="M818 1537 l161 -11 q-6 -99 -62 -185 q-56 -86 -169 -86 q-74 1 -132 46.5 q-58 45.5 -129 44.5 q-44 -1 -67.5 -30 q-23.5 -29 -33.5 -67 l-164 9 q6 97 65 184.5 q59 87.5 170 85.5 q72 -1 131 -46 q59 -45 130 -44 q44 1 67 30.5 q23 29.5 33 68.5 Z" /><glyph glyph-name="endash" unicode="&#x2013;" d="M1202 832 l-49 -236 l-1008 0 l49 236 l1008 0 Z" /><glyph glyph-name="emdash" unicode="&#x2014;" d="M1512 832 l-65 -236 l-1344 0 l65 236 l1344 0 Z" /><glyph glyph-name="quoteleft" unicode="&#x2018;" d="M178 1048 l23 150 q17 111 79.5 207 q62.5 96 149.5 166 l133 -82 q-47 -68 -83.5 -138 q-36.5 -70 -51.5 -152 l-26 -151 l-224 0 Z" /><glyph glyph-name="quoteright" unicode="&#x2019;" d="M529 1536 l-24 -154 q-16 -110 -76 -206.5 q-60 -96.5 -143 -167.5 l-142 84 q46 68 82.5 137.5 q36.5 69.5 51.5 151.5 l27 155 l224 0 Z" /><glyph glyph-name="quotesinglbase" unicode="&#x201a;" d="M311 230 l-26 -163 q-17 -111 -79.5 -207 q-62.5 -96 -148.5 -165 l-134 82 q46 67 79.5 137.5 q33.5 70.5 47.5 151.5 l29 164 l232 0 Z" /><glyph glyph-name="quotedblleft" unicode="&#x201c;" d="M186 1048 l23 150 q17 111 79.5 207 q62.5 96 149.5 166 l133 -82 q-47 -68 -83.5 -138 q-36.5 -70 -51.5 -152 l-26 -151 l-224 0 ZM518 1048 l23 150 q17 111 79.5 207 q62.5 96 149.5 166 l133 -82 q-47 -68 -83.5 -138 q-36.5 -70 -51.5 -152 l-26 -151 l-224 0 Z" /><glyph glyph-name="quotedblright" unicode="&#x201d;" d="M543 1536 l-24 -154 q-16 -110 -76 -206.5 q-60 -96.5 -143 -167.5 l-142 84 q46 68 82.5 137.5 q36.5 69.5 51.5 151.5 l27 155 l224 0 ZM879 1536 l-24 -154 q-16 -110 -76 -206.5 q-60 -96.5 -143 -167.5 l-142 84 q46 68 82.5 137.5 q36.5 69.5 51.5 151.5 l27 155 l224 0 Z" /><glyph glyph-name="quotedblbase" unicode="&#x201e;" d="M316 263 l-31 -196 q-18 -114 -77.5 -216 q-59.5 -102 -147.5 -176 l-140 81 q47 73 81 148.5 q34 75.5 49 161.5 l35 197 l231 0 ZM649 263 l-30 -195 q-18 -115 -81 -216.5 q-63 -101.5 -151 -176.5 l-141 81 q48 74 84.5 148.5 q36.5 74.5 52.5 161.5 l34 197 l232 0 Z" /><glyph glyph-name="ellipsis" unicode="&#x2026;" d="M51 138 q-3 69 42.5 114.5 q45.5 45.5 114.5 46.5 q66 1 112.5 -41 q46.5 -42 47.5 -110 q2 -68 -43 -113.5 q-45 -45.5 -113 -46.5 q-67 -2 -113 40.5 q-46 42.5 -48 109.5 ZM510 138 q-3 69 42.5 114.5 q45.5 45.5 114.5 46.5 q66 1 112.5 -41 q46.5 -42 47.5 -110 q2 -68 -43 -113.5 q-45 -45.5 -113 -46.5 q-67 -2 -113 40.5 q-46 42.5 -48 109.5 ZM960 138 q-3 69 42.5 114.5 q45.5 45.5 114.5 46.5 q66 1 112.5 -41 q46.5 -42 47.5 -110 q2 -68 -43 -113.5 q-45 -45.5 -113 -46.5 q-67 -2 -113 40.5 q-46 42.5 -48 109.5 Z" /><glyph glyph-name="guilsinglleft" unicode="&#x2039;" d="M308 123 l-217 389 l0 21 l330 391 l204 0 l-315 -416 l160 -382 l-162 -3 Z" /><glyph glyph-name="guilsinglright" unicode="&#x203a;" d="M302 926 l218 -389 l0 -21 l-332 -391 l-202 0 l315 416 l-161 382 l162 3 Z" /><glyph glyph-name="Euro" unicode="&#x20ac;" d="M967 8 q-122 -27 -244 -25 q-233 3 -372 149.5 q-139 146.5 -105 385.5 l-175 -2 l27 152 l163 0 l22 125 l-163 0 l27 151 l154 -1 q67 246 232.5 391 q165.5 145 429.5 142 q61 -1 120 -10 q59 -9 117 -22 l-59 -243 q-84 33 -172 35 q-149 3 -238.5 -77 q-89.5 -80 -134.5 -216 l332 1 l-26 -151 l-324 0 l-22 -125 l325 0 l-27 -152 l-316 0 q-18 -131 33.5 -210 q51.5 -79 190.5 -82 q91 -2 192 30 l13 -246 Z" /><glyph glyph-name="trademark" unicode="&#x2122;" d="M1040 915 l58 326 l-154 -325 l-72 -2 l-51 365 l-64 -364 l-127 0 l94 541 l150 0 l49 -364 l184 364 l154 0 l-95 -541 l-126 0 ZM658 1456 l-19 -107 l-125 0 l-75 -431 l-141 0 l76 431 l-132 0 l19 107 l397 0 Z" /><glyph glyph-name="Acircumflex" unicode="â" d="M-103 0 l778 1456 l271 0 l277 -1456 l-301 0 l-45 300 l-508 0 l-150 -300 l-322 0 ZM489 543 l352 0 l-81 543 l-271 -543 ZM953 1848 l261 -277 l1 -21 l-216 5 l-124 143 l-175 -142 l-228 -5 l0 23 l321 273 l160 1 Z" /><glyph glyph-name="Ccedilla" unicode="ç" d="M916 484 l291 2 q-29 -241 -209.5 -376 q-180.5 -135 -415.5 -130 q-197 4 -310.5 106.5 q-113.5 102.5 -154 261.5 q-40.5 159 -18.5 332 l12 95 q26 183 112.5 345 q86.5 162 231.5 261.5 q145 99.5 347 95.5 q238 -4 364.5 -146 q126.5 -142 139.5 -371 l-292 1 q0 121 -48 193.5 q-48 72.5 -178 77.5 q-128 4 -206 -65.5 q-78 -69.5 -117.5 -176 q-39.5 -106.5 -54.5 -213.5 l-13 -98 q-11 -88 -11 -192.5 q0 -104.5 44 -181 q44 -76.5 165 -80.5 q133 -5 214 63.5 q81 68.5 107 195.5 ZM450 3 l210 3 l-20 -64 q125 -26 125 -162 q0 -100 -60.5 -152.5 q-60.5 -52.5 -147 -72.5 q-86.5 -20 -165.5 -23 l8 169 q43 3 81.5 22 q38.5 19 47.5 67 q10 52 -38.5 60 q-48.5 8 -83.5 11 l43 142 Z" /><glyph glyph-name="Icircumflex" unicode="î" d="M585 1456 l-252 -1456 l-293 0 l252 1456 l293 0 ZM571 1851 l261 -277 l1 -21 l-216 5 l-124 143 l-175 -142 l-228 -5 l0 23 l321 273 l160 1 Z" /><glyph glyph-name="Odieresis" unicode="ö" d="M1315 760 l-9 -64 q-25 -187 -114 -352 q-89 -165 -238 -266.5 q-149 -101.5 -354 -97.5 q-198 4 -315 109.5 q-117 105.5 -161 268 q-44 162.5 -23 337.5 l8 65 q26 186 115 351 q89 165 238 267 q149 102 354 98 q199 -4 315.5 -109.5 q116.5 -105.5 160 -268.5 q43.5 -163 23.5 -338 ZM1008 695 l9 68 q11 90 7 197 q-4 107 -52.5 185.5 q-48.5 78.5 -168.5 83.5 q-130 5 -212 -68 q-82 -73 -126 -183.5 q-44 -110.5 -59 -218.5 l-8 -66 q-11 -89 -6.5 -196.5 q4.5 -107.5 53.5 -186.5 q49 -79 169 -84 q128 -5 210 68.5 q82 73.5 125.5 183.5 q43.5 110 58.5 217 ZM497 1673 q-1 56 38.5 93 q39.5 37 93.5 38 q54 1 95.5 -34 q41.5 -35 42.5 -91 q2 -55 -37 -92.5 q-39 -37.5 -94 -38.5 q-54 -1 -95.5 34 q-41.5 35 -43.5 91 ZM970 1672 q-1 55 38 92.5 q39 37.5 93 38.5 q54 1 96 -34 q42 -35 44 -91 q1 -56 -38.5 -93 q-39.5 -37 -93.5 -38 q-54 -1 -95.5 34 q-41.5 35 -43.5 91 Z" /><glyph glyph-name="Ucircumflex" unicode="û" d="M1052 1456 l294 0 l-164 -959 q-33 -243 -200.5 -382.5 q-167.5 -139.5 -411.5 -135.5 q-230 3 -364.5 143 q-134.5 140 -108.5 374 l163 960 l294 0 l-163 -961 q-15 -112 26.5 -190.5 q41.5 -78.5 165.5 -82.5 q131 -5 208 72.5 q77 77.5 97 201.5 l164 960 ZM933 1848 l261 -277 l1 -21 l-216 5 l-124 143 l-175 -142 l-228 -5 l0 23 l321 273 l160 1 Z" /><glyph glyph-name="Udieresis" unicode="ü" d="M1052 1456 l294 0 l-164 -959 q-33 -243 -200.5 -382.5 q-167.5 -139.5 -411.5 -135.5 q-230 3 -364.5 143 q-134.5 140 -108.5 374 l163 960 l294 0 l-163 -961 q-15 -112 26.5 -190.5 q41.5 -78.5 165.5 -82.5 q131 -5 208 72.5 q77 77.5 97 201.5 l164 960 ZM463 1673 q-1 56 38.5 93 q39.5 37 93.5 38 q54 1 95.5 -34 q41.5 -35 42.5 -91 q2 -55 -37 -92.5 q-39 -37.5 -94 -38.5 q-54 -1 -95.5 34 q-41.5 35 -43.5 91 ZM936 1672 q-1 55 38 92.5 q39 37.5 93 38.5 q54 1 96 -34 q42 -35 44 -91 q1 -56 -38.5 -93 q-39.5 -37 -93.5 -38 q-54 -1 -95.5 34 q-41.5 35 -43.5 91 Z" /><glyph glyph-name="acircumflex" unicode="â" d="M627 0 q-13 41 -11 98 q-57 -57 -126 -88 q-69 -31 -151 -30 q-135 2 -231 89 q-96 87 -91 227 q5 142 86 221.5 q81 79.5 200.5 112 q119.5 32.5 240.5 32.5 l132 -2 l15 66 q11 67 -14.5 114 q-25.5 47 -99.5 49 q-143 4 -170 -131 l-283 -1 q6 121 80 198 q74 77 182 113.5 q108 36.5 215 34.5 q169 -4 280.5 -103 q111.5 -99 93.5 -278 l-74 -458 q-9 -59 -14.5 -123.5 q-5.5 -64.5 18.5 -121.5 l-1 -19 l-277 0 ZM409 199 q64 -2 118.5 28 q54.5 30 94.5 78 l35 188 l-96 1 q-86 -1 -165 -41 q-79 -40 -92 -136 q-8 -54 22 -85.5 q30 -31.5 83 -32.5 ZM763 1538 l261 -277 l1 -21 l-216 5 l-124 143 l-175 -142 l-228 -5 l0 23 l321 273 l160 1 Z" /><glyph glyph-name="ccedilla" unicode="ç" d="M480 212 q78 -2 130.5 42.5 q52.5 44.5 67.5 118.5 l266 1 q-13 -183 -153.5 -290.5 q-140.5 -107.5 -317.5 -104.5 q-234 5 -336.5 168.5 q-102.5 163.5 -83.5 377.5 l3 29 q24 225 166 389 q142 164 384 159 q189 -4 293.5 -122 q104.5 -118 102.5 -302 l-264 0 q1 76 -33 132.5 q-34 56.5 -118 59.5 q-88 3 -139.5 -46.5 q-51.5 -49.5 -76 -124 q-24.5 -74.5 -32.5 -146.5 l-3 -28 q-6 -60 -4 -132.5 q2 -72.5 33.5 -125.5 q31.5 -53 114.5 -55 ZM333 3 l210 3 l-20 -64 q125 -26 125 -162 q0 -100 -60.5 -152.5 q-60.5 -52.5 -147 -72.5 q-86.5 -20 -165.5 -23 l8 169 q43 3 81.5 22 q38.5 19 47.5 67 q10 52 -38.5 60 q-48.5 8 -83.5 11 l43 142 Z" /><glyph glyph-name="icircumflex" unicode="î" d="M496 1082 l-188 -1082 l-283 0 l188 1082 l283 0 ZM497 1523 l261 -277 l1 -21 l-216 5 l-124 143 l-175 -142 l-228 -5 l0 23 l321 273 l160 1 Z" /><glyph glyph-name="odieresis" unicode="ö" d="M54 524 l2 21 q16 153 87.5 280.5 q71.5 127.5 192 203.5 q120.5 76 283.5 73 q234 -4 342.5 -168 q108.5 -164 89.5 -381 l-2 -22 q-25 -227 -173 -391.5 q-148 -164.5 -390 -159.5 q-232 4 -342 166 q-110 162 -90 378 ZM339 545 l-2 -22 q-6 -64 0.5 -135.5 q6.5 -71.5 42.5 -122.5 q36 -51 120 -53 q133 -4 193 102.5 q60 106.5 73 217.5 l2 21 q7 64 0.5 136.5 q-6.5 72.5 -43 125 q-36.5 52.5 -120.5 55.5 q-89 2 -144.5 -48.5 q-55.5 -50.5 -84 -126.5 q-28.5 -76 -37.5 -150 ZM306 1363 q-1 56 38.5 93 q39.5 37 93.5 38 q54 1 95.5 -34 q41.5 -35 42.5 -91 q2 -55 -37 -92.5 q-39 -37.5 -94 -38.5 q-54 -1 -95.5 34 q-41.5 35 -43.5 91 ZM779 1362 q-1 55 38 92.5 q39 37.5 93 38.5 q54 1 96 -34 q42 -35 44 -91 q1 -56 -38.5 -93 q-39.5 -37 -93.5 -38 q-54 -1 -95.5 34 q-41.5 35 -43.5 91 Z" /><glyph glyph-name="ucircumflex" unicode="û" d="M643 0 l22 113 q-121 -136 -299 -133 q-176 3 -244.5 122.5 q-68.5 119.5 -53.5 279.5 l117 700 l282 0 l-119 -703 q-8 -65 14 -113 q22 -48 95 -51 q132 -5 219 102 l134 765 l284 0 l-188 -1082 l-263 0 ZM784 1538 l261 -277 l1 -21 l-216 5 l-124 143 l-175 -142 l-228 -5 l0 23 l321 273 l160 1 Z" /><glyph glyph-name="udieresis" unicode="ü" d="M643 0 l22 113 q-121 -136 -299 -133 q-176 3 -244.5 122.5 q-68.5 119.5 -53.5 279.5 l117 700 l282 0 l-119 -703 q-8 -65 14 -113 q22 -48 95 -51 q132 -5 219 102 l134 765 l284 0 l-188 -1082 l-263 0 ZM315 1363 q-1 56 38.5 93 q39.5 37 93.5 38 q54 1 95.5 -34 q41.5 -35 42.5 -91 q2 -55 -37 -92.5 q-39 -37.5 -94 -38.5 q-54 -1 -95.5 34 q-41.5 35 -43.5 91 ZM788 1362 q-1 55 38 92.5 q39 37.5 93 38.5 q54 1 96 -34 q42 -35 44 -91 q1 -56 -38.5 -93 q-39.5 -37 -93.5 -38 q-54 -1 -95.5 34 q-41.5 35 -43.5 91 Z" /><glyph glyph-name="Gbreve" unicode="&#x11e;" d="M1274 765 l-91 -582 q-96 -119 -259.5 -162 q-163.5 -43 -306.5 -40 q-200 2 -320 103 q-120 101 -166 260.5 q-46 159.5 -24 339.5 l12 87 q26 187 112 349.5 q86 162.5 232 261.5 q146 99 352 95 q234 -4 360 -131.5 q126 -127.5 143 -354.5 l-282 1 q-9 108 -59 173.5 q-50 65.5 -166 69.5 q-129 5 -210 -66 q-81 -71 -124.5 -180 q-43.5 -109 -59.5 -216 l-12 -90 q-13 -97 -5 -202.5 q8 -105.5 62 -180 q54 -74.5 179 -77.5 q69 -2 132.5 14.5 q63.5 16.5 120.5 56.5 l49 251 l-265 0 l39 220 l557 0 ZM1015 1846 l199 2 q-6 -146 -108 -224 q-102 -78 -243 -75 q-136 2 -225 80.5 q-89 78.5 -91 218.5 l199 -2 q-2 -58 24.5 -95 q26.5 -37 90.5 -38 q128 -1 154 133 Z" /><glyph glyph-name="gbreve" unicode="&#x11f;" d="M934 37 q-31 -224 -188.5 -346 q-157.5 -122 -380.5 -117 q-108 3 -210 46.5 q-102 43.5 -172 127.5 l140 172 q94 -119 238 -122 q116 -3 191.5 61 q75.5 64 102.5 174 l16 63 q-55 -56 -120.5 -86.5 q-65.5 -30.5 -144.5 -29.5 q-146 3 -226.5 88.5 q-80.5 85.5 -108.5 210.5 q-28 125 -16 246 l2 22 q17 136 76 265 q59 129 164.5 211.5 q105.5 82.5 260.5 78.5 q77 -1 144.5 -30.5 q67.5 -29.5 113.5 -93.5 l37 105 l259 -1 l-178 -1045 ZM337 526 q-6 -60 -1 -131.5 q5 -71.5 38.5 -124 q33.5 -52.5 113.5 -55.5 q64 -2 114.5 25 q50.5 27 90.5 74 l84 456 q-42 96 -159 100 q-132 4 -197.5 -104 q-65.5 -108 -80.5 -220 l-3 -20 ZM823 1527 l199 2 q-6 -146 -108 -224 q-102 -78 -243 -75 q-136 2 -225 80.5 q-89 78.5 -91 218.5 l199 -2 q-2 -58 24.5 -95 q26.5 -37 90.5 -38 q128 -1 154 133 Z" /><glyph glyph-name="Idotaccent" unicode="&#x130;" d="M585 1456 l-252 -1456 l-293 0 l252 1456 l293 0 ZM336 1699 q-2 63 38.5 103 q40.5 40 102.5 41 q60 1 103 -36 q43 -37 45 -98 q1 -62 -39.5 -101.5 q-40.5 -39.5 -101.5 -40.5 q-59 -1 -102.5 35 q-43.5 36 -45.5 97 Z" /><glyph glyph-name="Scedilla" unicode="&#x15e;" d="M822 389 q18 104 -60.5 148.5 q-78.5 44.5 -159.5 74.5 q-102 39 -199 95.5 q-97 56.5 -157.5 142 q-60.5 85.5 -53.5 211.5 q8 144 97 237 q89 93 217.5 137 q128.5 44 256.5 41 q203 -4 337 -122.5 q134 -118.5 131 -327.5 l-292 0 q9 206 -193 210 q-86 2 -166.5 -40 q-80.5 -42 -96.5 -136 q-11 -61 28 -100.5 q39 -39.5 96.5 -63 q57.5 -23.5 101.5 -39.5 q110 -40 205.5 -98.5 q95.5 -58.5 152 -147.5 q56.5 -89 47.5 -219 q-10 -147 -94.5 -239 q-84.5 -92 -209.5 -134 q-125 -42 -257 -40 q-218 4 -369 128 q-151 124 -146 353 l293 -1 q-13 -238 234 -241 q85 -1 162.5 38.5 q77.5 39.5 94.5 132.5 ZM417 6 l210 3 l-20 -64 q125 -26 125 -162 q0 -100 -60.5 -152.5 q-60.5 -52.5 -147 -72.5 q-86.5 -20 -165.5 -23 l8 169 q43 3 81.5 22 q38.5 19 47.5 67 q10 52 -38.5 60 q-48.5 8 -83.5 11 l43 142 Z" /><glyph glyph-name="scedilla" unicode="&#x15f;" d="M630 306 q10 47 -22 73 q-32 26 -77.5 38.5 q-45.5 12.5 -78.5 21.5 q-122 31 -232 102 q-110 71 -105 218 q4 116 73 192.5 q69 76.5 171 114.5 q102 38 205 36 q163 -2 286 -88.5 q123 -86.5 125 -261.5 l-280 1 q2 141 -138 142 q-57 0 -109.5 -30.5 q-52.5 -30.5 -63.5 -91.5 q-12 -66 51.5 -88.5 q63.5 -22.5 109.5 -33.5 q90 -22 173.5 -58.5 q83.5 -36.5 136.5 -101.5 q53 -65 49 -173 q-4 -121 -78.5 -196 q-74.5 -75 -182 -109.5 q-107.5 -34.5 -212.5 -32.5 q-164 3 -291 97.5 q-127 94.5 -131 269.5 l267 -2 q3 -156 165 -157 q60 -1 118 25.5 q58 26.5 71 92.5 ZM308 -4 l210 3 l-20 -64 q125 -26 125 -162 q0 -100 -60.5 -152.5 q-60.5 -52.5 -147 -72.5 q-86.5 -20 -165.5 -23 l8 169 q43 3 81.5 22 q38.5 19 47.5 67 q10 52 -38.5 60 q-48.5 8 -83.5 11 l43 142 Z" /></font>
</defs>
</svg>
